<svg width="31" height="26" viewBox="0 0 31 26" fill="none" xmlns="http://www.w3.org/2000/svg">
<g clip-path="url(#clip0_67_27134)">
<path d="M30.2428 4.41908C29.947 4.16474 29.5519 4.15957 29.2527 4.40349L24.2271 8.42393C24.0339 8.58068 23.8988 8.8246 23.8543 9.10176C23.8082 9.37786 23.856 9.66543 23.986 9.90007C24.275 10.4233 24.4272 11.0336 24.4272 11.6658C24.4272 13.4243 23.249 14.8548 21.8007 14.8548C20.3523 14.8548 19.1741 13.4243 19.1741 11.6658C19.1741 10.6319 19.5948 9.65714 20.2976 9.05712C20.6926 8.72079 20.7883 8.05847 20.5113 7.57786L16.3885 0.426631C16.0637 -0.14221 15.2805 -0.14221 14.9555 0.426631L10.8328 7.57793C10.5558 8.05854 10.6516 8.72086 11.0466 9.05719C11.7494 9.65721 12.17 10.632 12.17 11.6659C12.17 13.4244 10.9918 14.8549 9.54347 14.8549C8.09514 14.8549 6.91693 13.4244 6.91693 11.6659C6.91693 11.0337 7.06909 10.4233 7.35813 9.90014C7.48811 9.6655 7.53598 9.378 7.48981 9.10183C7.44533 8.82468 7.31027 8.58068 7.11701 8.424L2.09145 4.40356C1.7905 4.15964 1.39717 4.16481 1.10136 4.41915C0.805552 4.67242 0.668739 5.11987 0.75594 5.54549L4.31607 22.5533C4.42551 23.089 4.85299 23.4471 5.30954 23.3443C12.1871 21.9533 19.157 21.9533 26.0346 23.3443C26.0824 23.3547 26.1321 23.3589 26.1782 23.3589C26.5733 23.3589 26.9289 23.0329 27.0281 22.5533L30.5882 5.54549C30.6754 5.1198 30.5386 4.67235 30.2428 4.41908Z" fill="url(#paint0_linear_67_27134)"/>
</g>
<defs>
<linearGradient id="paint0_linear_67_27134" x1="15.6721" y1="23.3618" x2="15.6721" y2="1.67097e-05" gradientUnits="userSpaceOnUse">
<stop stop-color="#FD5900"/>
<stop offset="1" stop-color="#FFDE00"/>
</linearGradient>
<clipPath id="clip0_67_27134">
<rect width="29.8842" height="26" fill="white" transform="translate(0.72998)"/>
</clipPath>
</defs>
</svg>
