<svg width="30" height="26" viewBox="0 0 30 26" fill="none" xmlns="http://www.w3.org/2000/svg">
<g clip-path="url(#clip0_67_3497)">
<path d="M29.6277 4.41908C29.3313 4.16474 28.9354 4.15957 28.6355 4.40349L23.5992 8.42393C23.4055 8.58068 23.2702 8.8246 23.2256 9.10176C23.1793 9.37786 23.2273 9.66543 23.3576 9.90007C23.6472 10.4233 23.7997 11.0336 23.7997 11.6658C23.7997 13.4243 22.619 14.8548 21.1676 14.8548C19.7161 14.8548 18.5354 13.4243 18.5354 11.6658C18.5354 10.6319 18.9569 9.65714 19.6613 9.05712C20.0571 8.72079 20.1531 8.05847 19.8755 7.57786L15.7438 0.426631C15.4183 -0.14221 14.6334 -0.14221 14.3078 0.426631L10.1762 7.57793C9.89861 8.05854 9.9946 8.72086 10.3904 9.05719C11.0947 9.65721 11.5163 10.632 11.5163 11.6659C11.5163 13.4244 10.3356 14.8549 8.88412 14.8549C7.43269 14.8549 6.25195 13.4244 6.25195 11.6659C6.25195 11.0337 6.40444 10.4233 6.6941 9.90014C6.82436 9.6655 6.87233 9.378 6.82606 9.10183C6.78149 8.82468 6.64614 8.58068 6.45247 8.424L1.41614 4.40356C1.11455 4.15964 0.720372 4.16481 0.423932 4.41915C0.127491 4.67242 -0.00961525 5.11987 0.0777726 5.54549L3.64553 22.5533C3.7552 23.089 4.1836 23.4471 4.64113 23.3443C11.5334 21.9533 18.5183 21.9533 25.4105 23.3443C25.4585 23.3547 25.5082 23.3589 25.5545 23.3589C25.9504 23.3589 26.3068 23.0329 26.4062 22.5533L29.974 5.54549C30.0613 5.1198 29.9242 4.67235 29.6277 4.41908V4.41908Z" fill="url(#paint0_linear_67_3497)"/>
</g>
<defs>
<linearGradient id="paint0_linear_67_3497" x1="15.0258" y1="23.3618" x2="15.0258" y2="1.67097e-05" gradientUnits="userSpaceOnUse">
<stop stop-color="#A2A2A2"/>
<stop offset="1" stop-color="#CFCFCF"/>
</linearGradient>
<clipPath id="clip0_67_3497">
<rect width="29.9482" height="26" fill="white" transform="translate(0.0517578)"/>
</clipPath>
</defs>
</svg>
