<svg width="31" height="26" viewBox="0 0 31 26" fill="none" xmlns="http://www.w3.org/2000/svg">
<g clip-path="url(#clip0_67_6865)">
<path d="M30.3021 4.41908C30.0056 4.16474 29.6097 4.15957 29.3099 4.40349L24.2735 8.42393C24.0799 8.58068 23.9445 8.8246 23.8999 9.10176C23.8537 9.37786 23.9016 9.66543 24.0319 9.90007C24.3215 10.4233 24.474 11.0336 24.474 11.6658C24.474 13.4243 23.2933 14.8548 21.8419 14.8548C20.3904 14.8548 19.2097 13.4243 19.2097 11.6658C19.2097 10.6319 19.6313 9.65714 20.3356 9.05712C20.7314 8.72079 20.8274 8.05847 20.5498 7.57786L16.4181 0.426631C16.0926 -0.14221 15.3077 -0.14221 14.9821 0.426631L10.8505 7.57793C10.5729 8.05854 10.6689 8.72086 11.0647 9.05719C11.769 9.65721 12.1906 10.632 12.1906 11.6659C12.1906 13.4244 11.0099 14.8549 9.55844 14.8549C8.107 14.8549 6.92627 13.4244 6.92627 11.6659C6.92627 11.0337 7.07876 10.4233 7.36842 9.90014C7.49868 9.6655 7.54664 9.378 7.50038 9.10183C7.4558 8.82468 7.32045 8.58068 7.12678 8.424L2.09046 4.40356C1.78887 4.15964 1.39469 4.16481 1.09825 4.41915C0.801808 4.67242 0.664701 5.11987 0.752089 5.54549L4.31984 22.5533C4.42952 23.089 4.85792 23.4471 5.31544 23.3443C12.2077 21.9533 19.1926 21.9533 26.0849 23.3443C26.1328 23.3547 26.1825 23.3589 26.2288 23.3589C26.6247 23.3589 26.9811 23.0329 27.0805 22.5533L30.6483 5.54549C30.7356 5.1198 30.5986 4.67235 30.3021 4.41908Z" fill="url(#paint0_linear_67_6865)"/>
</g>
<defs>
<linearGradient id="paint0_linear_67_6865" x1="15.7002" y1="23.3618" x2="15.7002" y2="1.67097e-05" gradientUnits="userSpaceOnUse">
<stop stop-color="#9C7A3C"/>
<stop offset="1" stop-color="#895E1A"/>
</linearGradient>
<clipPath id="clip0_67_6865">
<rect width="29.9482" height="26" fill="white" transform="translate(0.726074)"/>
</clipPath>
</defs>
</svg>
