<svg width="31" height="26" viewBox="0 0 31 26" fill="none" xmlns="http://www.w3.org/2000/svg">
<g clip-path="url(#clip0_67_190)">
<path d="M30.3025 4.41908C30.0061 4.16474 29.6102 4.15957 29.3103 4.40349L24.274 8.42393C24.0803 8.58068 23.945 8.8246 23.9004 9.10176C23.8542 9.37786 23.9021 9.66543 24.0324 9.90007C24.322 10.4233 24.4745 11.0336 24.4745 11.6658C24.4745 13.4243 23.2938 14.8548 21.8424 14.8548C20.3909 14.8548 19.2102 13.4243 19.2102 11.6658C19.2102 10.6319 19.6318 9.65714 20.3361 9.05712C20.7319 8.72079 20.8279 8.05847 20.5503 7.57786L16.4186 0.426631C16.0931 -0.14221 15.3082 -0.14221 14.9826 0.426631L10.851 7.57793C10.5734 8.05854 10.6694 8.72086 11.0652 9.05719C11.7695 9.65721 12.1911 10.632 12.1911 11.6659C12.1911 13.4244 11.0104 14.8549 9.55892 14.8549C8.10749 14.8549 6.92676 13.4244 6.92676 11.6659C6.92676 11.0337 7.07925 10.4233 7.3689 9.90014C7.49917 9.6655 7.54713 9.378 7.50086 9.10183C7.45629 8.82468 7.32094 8.58068 7.12727 8.424L2.09095 4.40356C1.78936 4.15964 1.39518 4.16481 1.09874 4.41915C0.802296 4.67242 0.665189 5.11987 0.752577 5.54549L4.32033 22.5533C4.43 23.089 4.8584 23.4471 5.31593 23.3443C12.2082 21.9533 19.1931 21.9533 26.0854 23.3443C26.1333 23.3547 26.183 23.3589 26.2293 23.3589C26.6252 23.3589 26.9816 23.0329 27.081 22.5533L30.6488 5.54549C30.7361 5.1198 30.599 4.67235 30.3025 4.41908Z" fill="url(#paint0_linear_67_190)"/>
</g>
<defs>
<linearGradient id="paint0_linear_67_190" x1="15.7006" y1="23.3618" x2="15.7006" y2="1.67097e-05" gradientUnits="userSpaceOnUse">
<stop stop-color="#5A4BB2"/>
<stop offset="1" stop-color="#EDC8FF"/>
</linearGradient>
<clipPath id="clip0_67_190">
<rect width="29.9482" height="26" fill="white" transform="translate(0.726562)"/>
</clipPath>
</defs>
</svg>
