<svg width="2102" height="1332" viewBox="0 0 2102 1332" fill="none" xmlns="http://www.w3.org/2000/svg">
<g opacity="0.4" clip-path="url(#clip0_102_167)">
<path fill-rule="evenodd" clip-rule="evenodd" d="M1369.63 102.879C1381.72 77.1895 1361.4 22.365 1353.93 -3.60118C1339.17 -54.9522 1322.19 -104.934 1305.69 -155.137C1289.19 -205.34 1272.58 -255.53 1258.73 -307.38C1249.74 -341.041 1238.73 -379.636 1239.63 -417.194C1241.56 -497.225 1320.82 -424.507 1343.07 -409.278C1399.67 -370.549 1462.05 -320.771 1528.41 -312.47C1568.02 -307.515 1595.11 -329.298 1610.09 -379.782C1614.98 -396.186 1616.75 -418.01 1628.93 -428.317C1641.94 -439.325 1659.28 -438.157 1673.01 -435.774C1723.04 -427.057 1769.93 -394.628 1813.26 -365.196C1860.02 -333.515 1905.37 -297.644 1950.5 -263.449C1969.63 -248.949 1994.14 -243.322 2016.03 -237.237C2044.73 -229.259 2073.75 -222.76 2102.67 -215.815C2166.27 -200.477 2232.06 -185.23 2290.02 -149.368C2326.31 -126.911 2361.47 -92.8657 2372.16 -38.6015C2377.54 -11.3557 2372.58 19.2507 2369.7 47.602C2366.23 81.8672 2362.27 116.109 2359.62 150.412C2351.08 260.899 2357.26 379.976 2429.99 441.338C2440.99 450.618 2453.08 457.039 2464.51 465.255C2471.79 470.495 2477.02 477.8 2474.68 490.352C2468.85 521.845 2428.01 547.38 2409.44 561.704C2368.78 593.055 2326.68 620.505 2285.38 650.122C2258.07 669.704 2215.93 692.786 2198.55 728.667C2183.07 760.637 2202.51 807.167 2211.57 835.681C2220.08 862.388 2238.39 904.665 2225.77 936.115C2219.65 951.363 2207.02 958.221 2195.37 962.134C2174.98 968.956 2154.98 969.472 2134.75 979.576C2101.57 996.159 2065.94 1026.65 2048.76 1070.04C2036.85 1100.11 2039.6 1127.86 2045.92 1157.22C2048.57 1169.56 2051.1 1178.79 2045.6 1191.32C2036.86 1211.23 2021.61 1227.7 2008.54 1242.34C1961.75 1294.77 1909.23 1339.89 1856.12 1378.91C1829.58 1398.41 1802.06 1417.05 1773.43 1429.1C1754.66 1437.04 1730.57 1445.15 1713.8 1432.3C1694.37 1417.44 1678.49 1391.88 1663.09 1370.09C1634.35 1329.37 1607.05 1286.83 1580.09 1243.99C1517.74 1144.9 1457.6 1043.33 1399.66 939.287C1358.88 865.948 1316.94 791.664 1284.32 710.678C1277.98 694.828 1272.85 678.075 1269 660.646C1264.79 642.216 1255.36 628.2 1245.17 615.328C1181.88 535.437 1092.09 490.951 1012.23 445.041C991.961 433.383 971.686 421.74 951.766 409.197C934.642 398.415 912.793 388.34 900.407 368.903C875.991 330.619 928.508 298.49 950.325 285.719C1027.14 240.749 1110.19 216.514 1190.04 188.001C1228.04 174.393 1266.16 161.002 1303.74 144.662C1323.29 136.181 1359.02 125.4 1369.63 102.879Z" stroke="white" stroke-width="0.5"/>
<path fill-rule="evenodd" clip-rule="evenodd" d="M1385.23 108.542C1385.64 71.8933 1373.28 35.1224 1364.08 2.3746C1350.85 -44.7617 1336.08 -91.0174 1322.07 -137.703C1308.82 -181.848 1295.65 -226.319 1285.86 -272.428C1279.89 -300.546 1271.92 -334.808 1277.35 -365.495C1289.1 -432.017 1363.47 -363.688 1383.51 -350.343C1433.31 -317.149 1488.22 -276.272 1546.57 -271.406C1583.01 -268.369 1608.78 -289.837 1622.77 -336.292C1627.62 -352.364 1629.81 -367.57 1641.34 -378.427C1654.68 -390.996 1672.06 -391.904 1686.94 -390.541C1733.57 -386.276 1778.08 -358.909 1818.7 -333.396C1860.67 -307.038 1903.72 -278.16 1940.94 -245.502C1955.82 -232.449 1976.93 -225.787 1994.77 -219.414C2022.23 -209.618 2050.05 -201.267 2077.67 -192.158C2133.82 -173.66 2190.9 -153.557 2241.38 -117.629C2277.83 -91.6915 2311.47 -55.4751 2327.1 -2.98087C2342.93 50.2375 2334.1 107.213 2329.72 164.437C2322.1 263.347 2316.73 386.584 2375.84 453.923C2384.81 464.137 2395.18 470.248 2405.02 478.595C2410.08 482.882 2415.54 488.385 2414.76 497.596C2412.74 521.51 2377.74 541.29 2364.62 550.759C2328.38 576.931 2290.88 599.509 2254.16 624.278C2224.99 643.943 2190.32 664.056 2167.36 696.243C2139.49 735.302 2169.1 800.894 2169.96 844.057C2171.44 918.9 2105.32 910.329 2067.68 916.693C2024.47 923.995 1974.76 959.581 1979.13 1025.35C1980.8 1050.5 1988.14 1070.34 1981.75 1096.6C1971.75 1137.67 1947.07 1174.47 1924.62 1205.46C1890.85 1252.03 1852.38 1294.22 1811.22 1328.17C1781.74 1352.47 1734.32 1389.66 1704.28 1361.18C1684.05 1342.03 1666.87 1315.46 1650.06 1290.73C1624.89 1253.72 1600.98 1215.18 1577.51 1176.19C1523.29 1086.29 1471.58 993.351 1423.12 897.551C1390.06 832.174 1315.95 611.665 1308.12 599.827C1284.75 564.544 1250.21 541.198 1218.92 519.968C1177.3 491.724 1133.9 467.818 1090.76 443.436C1070.24 431.813 1049.3 420.782 1029.39 407.565C1015.23 398.157 996.847 385.324 990.165 365.03C977.118 325.429 1026.78 295.629 1047.55 282.831C1111.18 243.579 1179.45 219.653 1245.71 192.482C1278.23 179.135 1311.02 166.057 1342.84 149.107C1355.68 142.256 1384.97 131.182 1385.23 108.542Z" stroke="white" stroke-width="0.5"/>
<path fill-rule="evenodd" clip-rule="evenodd" d="M1408.46 105.615C1400.15 25.3371 1372.29 -50.9522 1353.22 -127.275C1343.66 -165.588 1334.26 -204.62 1329.56 -245.137C1327.11 -266.208 1324.16 -292.743 1331.73 -313.719C1351.98 -369.83 1419.27 -308.692 1441.36 -294.512C1484.09 -267.11 1531.68 -234.718 1581.51 -233.147C1611.96 -232.196 1635.9 -250.547 1648.46 -289.126C1654.03 -306.242 1657.44 -321.799 1669.56 -333.523C1681.84 -345.399 1697.2 -348.653 1711.39 -349.053C1752.17 -350.223 1792.43 -329.774 1828.33 -310.028C1870.42 -286.816 1910.9 -259.367 1949.43 -227.902C1983.19 -200.364 2024.13 -188.409 2062.13 -172.108C2112.46 -150.508 2162.85 -126.723 2207.55 -90.309C2242.85 -61.5423 2274.2 -23.6516 2292.02 26.9556C2310.09 78.4426 2309.2 134.138 2304.91 191.692C2298.42 278.698 2287.33 393.454 2331.24 461.967C2337.63 471.939 2345.03 478.163 2353.14 485.247C2357.08 488.686 2362.31 492.819 2361.5 500.335C2359.55 518.43 2328.29 532.493 2318.64 538.352C2287.86 557.057 2256.39 573.334 2225.4 591.322C2196.46 608.116 2165.59 625.064 2140.15 651.215C2099.64 692.873 2133.4 761.161 2107.92 810.885C2092.09 841.753 2059.79 847.867 2035.29 850.445C2005.13 853.596 1968.85 843.09 1941.66 870.13C1921.4 890.269 1926.47 914.883 1926.52 941.956C1926.6 987.829 1906.05 1034.21 1885.89 1071.83C1858.67 1122.66 1824.52 1169.27 1786.59 1206.12C1769.39 1222.83 1750.26 1239.26 1729.93 1246.91C1710.89 1254.08 1698.1 1249.87 1684.33 1234.88C1642.17 1189.01 1608.06 1124.9 1574.92 1065.59C1533.27 991.07 1493.96 913.89 1458.36 833.659C1434.08 778.948 1409.71 722.061 1394.75 660.68C1390.86 644.68 1387.15 627.695 1386.97 610.383C1386.81 597.349 1388.54 588.018 1383.25 576.602C1367.57 542.772 1333.18 522.182 1307.42 504.761C1266.26 476.892 1223.19 453.575 1180.5 429.598C1155.58 415.631 1106.4 394.033 1101.31 351.728C1096.92 315.203 1135.88 288.447 1155.89 274.537C1206.52 239.367 1261.12 216.273 1314.08 190.002C1338.35 177.962 1363.24 166.158 1386.33 149.797C1392.23 145.631 1400.83 140.718 1405.29 133.594C1410.39 125.416 1409.46 115.497 1408.46 105.615Z" stroke="white" stroke-width="0.5"/>
<path fill-rule="evenodd" clip-rule="evenodd" d="M1405.92 119.887C1397.24 47.8375 1378.04 -20.5797 1365.58 -91.3196C1359.99 -123.037 1354.72 -155.856 1354.84 -189.242C1354.91 -207.197 1356.21 -228.862 1365.73 -243.965C1393.03 -287.315 1449.12 -238.62 1473.91 -223.425C1510.72 -200.799 1552.74 -174.234 1595.65 -176.045C1623.77 -177.229 1643.02 -196.006 1654.31 -230.58C1666.41 -267.669 1687.19 -285.42 1716.81 -288.624C1753.94 -292.622 1791.15 -277.365 1824.42 -261.304C1864.48 -241.914 1902.82 -217.581 1938.96 -188.603C1974.12 -160.417 2012.58 -142.396 2050.54 -120.783C2100.86 -92.1205 2150.95 -58.6582 2190.3 -8.43859C2224.56 35.2879 2247.57 91.4981 2254.09 156.205C2260.92 223.756 2247.68 292.164 2246.83 360.47C2246.29 403.075 2246.63 460.227 2267.82 493.153C2274.89 504.135 2293.93 511.177 2277.17 525.794C2267.59 534.155 2255.09 538.362 2244.54 543.116C2227.49 550.802 2210.31 557.819 2193.19 565.169C2156.7 580.838 2118.38 596.033 2084.43 621.667C2041.67 653.929 2054.15 713.465 2027.55 758.99C2013.23 783.491 1990.47 794.374 1969.07 800.237C1955.23 804.042 1941.22 805.797 1927.3 806.784C1912.76 807.818 1897.34 805.283 1882.88 809.934C1862.28 816.539 1858.61 840.202 1850.94 863.237C1837.46 903.722 1820.41 942.275 1800.16 978.019C1775.35 1021.84 1745.98 1063.96 1711.65 1094.77C1698.29 1106.76 1682.96 1118.59 1667.2 1121.43C1651.44 1124.28 1640.86 1115.17 1630.31 1102.61C1599 1065.42 1573.9 1015.38 1550.01 967.884C1520.11 908.429 1492.54 846.458 1468.82 781.801C1452.45 737.167 1436.89 690.572 1429 641.001C1426.71 626.577 1425.06 611.745 1425.18 596.687C1425.26 586.358 1428.03 575.073 1425.62 565.42C1418.06 535.259 1383.28 515.94 1363.95 502.575C1325.37 475.9 1283.69 457.453 1245.01 431.136C1223.9 416.775 1190.25 395.525 1186.82 359.575C1183.59 325.776 1213.6 299.386 1232.58 283.713C1269.89 252.891 1310.65 231.182 1349.9 206.021C1366.04 195.661 1383.34 185.134 1397.7 170.196C1410.49 156.875 1408.14 138.357 1405.92 119.887Z" stroke="white" stroke-width="0.5"/>
<path fill-rule="evenodd" clip-rule="evenodd" d="M1414.47 127.32C1409.46 66.0034 1397.05 5.48526 1392.19 -56.6562C1389.35 -93.0424 1383.96 -154.675 1412.2 -181.319C1443.2 -210.613 1487.37 -178.275 1514.11 -162.103C1545.92 -142.856 1583.63 -120.967 1620.88 -125.577C1632.66 -127.032 1644.41 -131.891 1653.7 -143.024C1663.65 -154.937 1666.17 -170.094 1672.53 -184.769C1685.88 -215.554 1710.18 -229.888 1735.02 -233.49C1770.14 -238.59 1805.4 -226.74 1837.39 -212.806C1873.62 -196.98 1908.29 -176.33 1940.89 -151.15C1972.05 -127.111 2003.42 -104.445 2035.23 -81.6499C2076.83 -51.868 2117.16 -17.7459 2149.6 27.7954C2181.55 72.6681 2203.73 127.929 2212 190.592C2220.07 251.733 2215.02 315.066 2207.25 377.571C2202.83 413.046 2198.02 467.421 2212.95 498.465C2219.59 512.275 2229.3 519.101 2211.09 527.887C2188.16 538.95 2162.68 542.418 2139.14 548.876C2105.17 558.202 2070.42 567.619 2037.61 584.498C2016.65 595.276 2002.42 610.394 1991.12 636.457C1982.52 656.319 1976.21 677.65 1965.54 696.029C1940.51 739.173 1899.92 750.847 1863.33 762.643C1839.8 770.227 1819.65 774.329 1799.44 795.264C1775.55 820.003 1755.51 851.464 1733.99 879.669C1710.37 910.639 1685.04 942.281 1655.73 963.054C1629.63 981.55 1608.18 982.392 1588.68 957.123C1558.27 917.72 1536.61 861.382 1517.44 809.926C1497.93 757.565 1480.59 702.216 1471.54 643.838C1466.66 612.316 1468.08 580.781 1465.55 548.992C1462.34 509.059 1420.57 491.313 1397.59 476.907C1359.43 452.993 1231.4 394.496 1286.44 308.943C1309.41 273.233 1343.88 250.426 1372.95 225.639C1385 215.346 1400.77 203.988 1409.75 188.498C1419.53 171.628 1415.97 145.771 1414.47 127.32Z" stroke="white" stroke-width="0.5"/>
<path fill-rule="evenodd" clip-rule="evenodd" d="M1426.78 140.1C1425.82 87.2133 1420.1 33.5617 1423.32 -20.3107C1425.38 -55.2135 1431.91 -98.9637 1459.11 -116.769C1489.8 -136.86 1527.53 -118.159 1554.59 -103.017C1582.47 -87.4122 1615.04 -67.3062 1647.71 -75.3525C1658.11 -77.9217 1668.61 -84.0842 1675.56 -95.7544C1682.24 -106.945 1685.11 -121.048 1691.82 -132.504C1706.89 -158.233 1729.41 -171.712 1752.41 -176.39C1820.43 -190.236 1892.61 -149.682 1947.59 -109.362C1975.1 -89.1757 2001.55 -64.4608 2027.82 -41.1521C2061.91 -10.9064 2094.39 22.891 2120.76 64.6597C2176.83 153.454 2189.65 265.085 2179.22 383.824C2175.94 421.197 2169.02 459.062 2174.49 495.297C2177.3 513.997 2171.29 521.281 2157.25 525.644C2135.32 532.459 2112.31 532.89 2090.23 535.691C2058.82 539.672 2026.81 543.606 1995.97 553.565C1974.72 560.431 1957.59 569.605 1942.66 592.858C1932.01 609.437 1923.71 628.273 1913.82 645.582C1895.03 678.461 1870.74 706.773 1843 724.755C1820.99 738.987 1797.84 749.514 1774.69 758.734C1744.59 770.76 1717.05 785.306 1688.97 805.426C1651.77 832.037 1591.06 887.177 1558.01 835.023C1521.56 777.49 1503.97 688.683 1499.4 612.174C1497.87 586.484 1500.07 558.104 1492.78 534.448C1481.84 499.065 1460.86 483.967 1436.61 465.536C1400.32 437.932 1316.21 388.654 1351.54 311.866C1365.54 281.445 1388.4 260.043 1406.64 234.437C1427.11 205.787 1427.45 176.164 1426.78 140.1Z" stroke="white" stroke-width="0.5"/>
<path fill-rule="evenodd" clip-rule="evenodd" d="M1438.81 153.803C1443.57 89.4949 1440.04 -24.8493 1498.65 -55.5776C1529.62 -71.823 1565.01 -59.764 1593.43 -46.9744C1616.31 -36.7089 1641.81 -19.9236 1667.88 -30.6473C1687.05 -38.5343 1693.46 -66.4353 1707.63 -83.8198C1725.2 -105.367 1747.52 -116.926 1770.18 -121.109C1833.52 -132.804 1898.87 -101.277 1951.22 -65.1722C2005.58 -27.6677 2057.29 30.905 2094.35 95.8589C2140.55 176.858 2156.95 275.87 2151.33 381.072C2150.29 400.49 2148.52 419.876 2147.16 439.29C2146.25 452.318 2147.36 466.447 2145.39 479.37C2142.08 500.911 2129.23 510.76 2114.16 514.922C2092.48 520.924 2069.91 519.738 2048.26 520.127C2018.64 520.672 1988.69 520.544 1959.18 525.184C1939.33 528.321 1918.37 532.014 1902.48 551.632C1891.64 565.01 1882.96 581.321 1875.25 597.87C1858.74 633.357 1843.85 660.886 1816.74 684.219C1772.18 722.491 1719.76 747.459 1669.47 763.13C1630 775.429 1567.98 793.989 1541.95 745.68C1518.58 702.373 1520.94 643.304 1516.85 590.963C1514.86 565.517 1510.88 540.62 1503.18 517.713C1493.47 488.836 1480.43 469.861 1461.3 451.716C1429.09 421.175 1377.95 380.533 1394.73 314.832C1400.92 290.584 1413.62 270.273 1421.8 247.171C1432.65 216.649 1436.42 186.242 1438.81 153.803Z" stroke="white" stroke-width="0.5"/>
<path fill-rule="evenodd" clip-rule="evenodd" d="M1457.66 168.496C1470.08 103.622 1485 21.3103 1540.66 -2.21691C1567.62 -13.6157 1596.09 -9.74454 1622.26 -3.10279C1641.01 1.64931 1666.46 18.2889 1686.18 3.89714C1700.67 -6.70445 1712.06 -27.9145 1726.44 -40.1579C1746.2 -56.9939 1768.43 -66.3021 1790.94 -69.6882C1849.58 -78.5199 1908.81 -53.9591 1958.31 -22.0436C2065.86 47.3169 2134.94 202.787 2131.24 368.813C2130.13 418.306 2132.69 473.832 2088.19 491.228C2039.63 510.188 1986.76 496.043 1938.24 498.8C1919.71 499.845 1896.47 500.371 1879.49 514.938C1869.27 523.691 1861.72 538.701 1855.17 551.92C1838.45 585.576 1821.86 614.663 1796.97 638.959C1758.5 676.512 1712.85 703.384 1667.88 719.603C1628.66 733.743 1576.6 745.788 1553.07 695.981C1535.05 657.752 1536.31 606.818 1529.02 562.991C1520.92 514.194 1502.54 471.433 1476.26 437.309C1450.69 404.14 1420.63 371.977 1424.81 317.347C1426.24 298.608 1429.47 275.392 1435.06 257.719C1444.36 228.634 1451.92 198.794 1457.66 168.496Z" stroke="white" stroke-width="0.5"/>
<path fill-rule="evenodd" clip-rule="evenodd" d="M1479.37 185.269C1499.34 125.339 1525.98 67.296 1575.64 46.0067C1598.81 36.0784 1622.77 34.7566 1646.28 34.9356C1663.58 35.0663 1680.57 37.019 1697.56 28.5433C1713.3 20.7002 1728.04 8.89214 1743.66 0.434861C1764.3 -10.8126 1785.88 -17.7103 1807.57 -19.9933C1861.91 -25.6504 1915.69 -6.6033 1962.45 21.4957C1985.09 35.0871 2008.92 51.371 2026.58 75.0262C2043.64 97.8645 2058.49 124.702 2071.02 152.339C2097.67 211.063 2112.79 278.767 2113.18 350.061C2113.45 398.958 2106.27 440.813 2066.73 459.969C2022.16 481.559 1971.99 473.912 1926.86 475.542C1895.92 476.66 1862.45 475.358 1839.92 510.802C1821.99 539.002 1805.44 566.117 1783.04 588.607C1749.9 621.693 1712.66 646.148 1673.54 660.522C1637.82 673.553 1598.49 677.713 1575.02 638.214C1556.44 606.899 1550.75 564.23 1538.86 527.738C1525.62 487.019 1505.25 454.565 1482.33 423.471C1461.74 395.491 1444.9 363.804 1442.76 322.234C1442.32 313.736 1441.96 304.58 1442.61 295.946C1443.43 284.931 1447.71 276.654 1451.62 266.593C1461.98 240.058 1470.33 212.391 1479.37 185.269Z" stroke="white" stroke-width="0.5"/>
<path fill-rule="evenodd" clip-rule="evenodd" d="M1506.62 197.931C1531.98 146.087 1564.42 103.563 1608.34 81.6273C1627.12 72.2384 1646.48 67.48 1665.62 60.3543C1681.04 54.6007 1695.52 49.368 1711.26 46.9452C1748.57 41.2432 1784.64 24.523 1822.24 22.7882C1872.45 20.428 1921.54 35.4423 1965.6 60.1292C1987.12 72.181 2008.3 86.8375 2026.78 105.944C2042.66 122.352 2054.06 146.061 2064.14 169.104C2083.91 214.254 2098.38 268.015 2099.18 322.641C2100.96 443.075 1985.45 441.321 1923.98 445.016C1895.71 446.72 1855.52 442.996 1831.16 470.57C1813.76 490.265 1798.47 512.134 1779.73 529.783C1729.38 577.179 1652.75 619.603 1602.25 567.533C1580.63 545.258 1567.24 511.677 1550.66 483.324C1533.58 454.126 1513.29 429.61 1493.13 404.324C1474.29 380.698 1461.29 357.632 1459.31 320.935C1458.36 303.406 1465.97 289.114 1472.55 273.532C1483.36 247.942 1494.62 222.499 1506.62 197.931Z" stroke="white" stroke-width="0.5"/>
<path fill-rule="evenodd" clip-rule="evenodd" d="M1532.74 208.441C1579.01 136.526 1652.78 75.7919 1722.92 67.1108C1805.44 56.8978 1888.66 58.8046 1962.9 97.8194C1997.32 115.907 2033.29 139.362 2053.68 181.856C2069.21 214.187 2084.86 256.742 2082.33 297.824C2076.16 398.316 1979.1 407.869 1923.47 414.013C1893.53 417.32 1858.13 415.792 1829.1 431.865C1812.26 441.18 1797.39 459.154 1781.54 471.408C1733.53 508.545 1676.11 524.205 1626.73 497.108C1603.91 484.576 1584.76 463.852 1565.5 444.284C1545.77 424.255 1525 405.682 1506.09 384.319C1491 367.263 1474.21 345.079 1480.04 314.833C1487.38 276.714 1513.85 237.811 1532.74 208.441Z" stroke="white" stroke-width="0.5"/>
<path fill-rule="evenodd" clip-rule="evenodd" d="M1562.15 213.24C1610.22 149.047 1671.82 97.6735 1738.67 88.5177C1774.12 83.6641 1810.03 89.0577 1844.72 93.7843C1884.05 99.145 1922.82 109.612 1958.91 127.689C2003.84 150.193 2073.65 192.88 2063.92 274.495C2054.25 355.504 1973.51 372.01 1926.35 380.539C1896.12 385.99 1865.28 388.631 1835.03 396.725C1818.62 401.112 1803.71 409.272 1787.9 417.039C1744.16 438.607 1693.96 443.776 1650.16 433.541C1607.71 423.624 1561.43 398.226 1527.51 364.848C1512.87 350.456 1505.38 333.924 1511.32 307.761C1519.6 271.407 1542.29 239.754 1562.15 213.24Z" stroke="white" stroke-width="0.5"/>
<path fill-rule="evenodd" clip-rule="evenodd" d="M1592.47 207.997C1636.22 152.762 1692.13 114.508 1751.05 106.324C1817.09 97.1478 1886.9 117.364 1946.32 145.93C1977.91 161.119 2048.05 190.459 2038.33 252.514C2028.61 314.569 1962.79 332.735 1925.51 341.932C1880.29 353.043 1833.33 361.249 1787.49 367.195C1747.66 372.38 1705.71 376.745 1666.42 374.235C1644.24 372.885 1622.35 368.901 1601.02 362.329C1585.25 357.42 1564.65 352.33 1552.58 337.785C1522.15 301.085 1571.55 234.406 1592.47 207.997Z" stroke="white" stroke-width="0.5"/>
<path fill-rule="evenodd" clip-rule="evenodd" d="M1628.96 209.527C1715.62 107.809 1833.44 115.272 1929.2 159.679C1951.44 170.003 2015.68 195.012 2008.93 241.157C2002.37 285.893 1947.49 302.936 1921.68 311.158C1841.7 336.636 1757.81 336.727 1677.36 338.844C1652.24 339.505 1604.41 346.035 1588.78 314.205C1571.82 279.617 1610.99 230.623 1628.96 209.527Z" stroke="white" stroke-width="0.5"/>
<path fill-rule="evenodd" clip-rule="evenodd" d="M1669.03 205.608C1736.51 133.623 1832.16 135.873 1905.53 168.595C1923.49 176.614 1970.27 194.575 1970.35 229.114C1970.42 261.068 1927.59 274.542 1911.19 280.37C1874.67 293.354 1836.55 297.902 1799.2 301.735C1764.66 305.293 1729.6 309.202 1695.41 308.409C1677.41 307.985 1642.44 309.716 1634.45 283.011C1625.84 254.273 1654.05 221.592 1669.03 205.608Z" stroke="white" stroke-width="0.5"/>
<path fill-rule="evenodd" clip-rule="evenodd" d="M1714.3 203.499C1761.12 158.574 1829.41 158.366 1879.61 179.319C1893.12 184.964 1923.01 195.681 1925.51 219.147C1927.81 240.755 1902.8 250.741 1891.51 255.558C1841.51 276.91 1780.15 283.221 1729.53 277.213C1716.8 275.702 1693.45 273.982 1689.09 254.064C1684.63 233.619 1703.54 213.813 1714.3 203.499Z" stroke="white" stroke-width="0.5"/>
<path fill-rule="evenodd" clip-rule="evenodd" d="M1759.33 204.988C1783.92 183.496 1822.07 182.258 1848.27 192.604C1866.7 199.889 1883.96 218.955 1857.73 233.979C1831.69 248.876 1794.81 252.47 1768.02 246.092C1747.59 241.223 1738.21 223.452 1759.33 204.988Z" stroke="white" stroke-width="0.5"/>
<path fill-rule="evenodd" clip-rule="evenodd" d="M824.608 -207.326C851.851 -266.604 858.622 -344.684 898.062 -396.152C930.452 -438.424 977.828 -407.795 1015.67 -409.235C1045.73 -410.375 1072.92 -432.331 1098.93 -453.458C1122.28 -472.419 1144.95 -493.01 1168.66 -511.098C1184 -522.784 1212.34 -547.083 1228.19 -535.793C1243.37 -524.988 1244.54 -488.265 1245.81 -466.115C1247.47 -437.24 1247.22 -408.005 1248.4 -379.056C1250.37 -330.24 1260.32 -287.617 1274.13 -243.913C1289.86 -194.181 1306.5 -145.03 1324.08 -96.46C1336.99 -60.6423 1350.12 -24.8529 1361.28 12.1933C1368.29 35.4352 1385.8 82.3915 1374.44 106.682C1369.02 118.272 1355.16 125.095 1345.52 130.304C1329.21 139.123 1312.29 145.654 1295.49 151.852C1264.2 163.399 1232.66 173.152 1201.19 183.369C1160.35 196.629 1120.9 210.222 1081.03 230.237C1039.78 250.975 998.958 273.762 957.945 295.664C930.166 310.505 900.856 328.614 871.21 328.087C834.098 327.385 821.727 288.742 794.07 267.255C770.28 248.766 808.973 172.401 816.205 148.471C823.552 124.269 826.513 98.7741 834.33 74.8598C844.091 45.0107 857.354 16.9786 869.701 -11.2925C884.81 -45.8674 899.731 -78.372 880.101 -110.973C868.923 -129.515 853.795 -143.185 840.706 -159.18C832.229 -169.547 816.001 -188.599 824.608 -207.326Z" stroke="white" stroke-width="0.5"/>
<path fill-rule="evenodd" clip-rule="evenodd" d="M840.906 -209.051C861.751 -260.094 876.851 -334.28 914.93 -374.305C947.468 -408.511 987.488 -385.569 1023.46 -389.103C1053.14 -392.005 1076.99 -415.665 1101.71 -437.916C1121.54 -455.765 1141.24 -474.039 1161.83 -490.254C1177 -502.203 1201.5 -523.236 1217.68 -515.736C1232.23 -508.995 1233.95 -472.571 1235.04 -453.883C1236.61 -426.607 1235.86 -398.865 1235.62 -371.33C1235.19 -322.96 1236.88 -277.883 1248.63 -233.125C1260.44 -188.171 1277.7 -148.116 1294.86 -107.039C1308.28 -74.9022 1321.37 -42.3816 1332.56 -8.5692C1340.9 16.6109 1353.93 50.6378 1349.06 80.4404C1345.21 104.02 1302.51 115.378 1289.02 120.603C1261.28 131.329 1233.23 139.862 1205.21 148.236C1171.06 158.433 1137.81 164.762 1104.39 180.629C1044.62 208.985 984.094 254.928 921.221 261.892C883.299 266.094 851.017 249.897 823.441 223.843C812.521 213.527 820.646 188.435 825.548 173.925C833.688 149.817 844.137 126.952 852.882 103.185C861.067 80.9343 866.619 58.0932 873.229 35.1912C879.93 11.9903 889.156 -9.97615 896.76 -32.6807C901.485 -46.7735 907.236 -62.9796 905.87 -78.2586C904.459 -94.0736 895.81 -106.862 888.004 -117.522C873.316 -137.478 826.198 -173.028 840.906 -209.051Z" stroke="white" stroke-width="0.5"/>
<path fill-rule="evenodd" clip-rule="evenodd" d="M868.611 -219.043C885.874 -267.435 906.726 -328.205 943.636 -356.727C973.812 -380.052 1007.16 -364.556 1039.03 -370.419C1065.54 -375.293 1086.18 -399.497 1107.93 -420.017C1125.78 -436.846 1143.72 -453.745 1162.59 -468.32C1176.89 -479.374 1195.85 -494.703 1211.71 -490.246C1225.27 -486.432 1227.77 -455.147 1228.93 -439.644C1230.89 -413.229 1229.84 -386.116 1228.85 -359.319C1227.24 -315.474 1223.43 -270.235 1230.72 -227.997C1237.82 -186.988 1253.66 -153.871 1269.02 -118.506C1280.79 -91.4147 1292.2 -63.8983 1301.71 -35.0507C1309.02 -12.9083 1318.38 13.8732 1315.6 39.29C1313.21 61.2218 1288.28 70.2807 1274.88 76.7943C1252.75 87.5386 1230.06 95.5586 1207.52 103.801C1183.19 112.689 1158.03 118.802 1133.95 128.55C1083.29 149.081 1036.45 178.884 983.654 183.914C949.457 187.178 907.923 182.136 881.292 156.966C862.143 138.86 893.557 76.5981 901.211 54.8818C913.709 19.3607 924.008 -20.126 928.619 -58.1231C932.552 -90.6969 916.251 -114.135 900.52 -134.146C890.668 -146.689 879.457 -157.967 870.939 -172.226C861.082 -188.738 861.375 -198.759 868.611 -219.043Z" stroke="white" stroke-width="0.5"/>
<path fill-rule="evenodd" clip-rule="evenodd" d="M893.747 -229.362C909.388 -269.462 931.408 -314.186 963.326 -334.811C991.291 -352.872 1020.22 -341.133 1049.06 -350.158C1071.56 -357.195 1090.85 -381.967 1109.58 -399.704C1132.48 -421.394 1170.65 -464.602 1199.09 -457.606C1225.54 -451.093 1217.67 -369.508 1216.41 -344.348C1214.42 -304.523 1209 -263.323 1210.76 -223.797C1212.27 -189.767 1223.32 -163.147 1234.96 -134.716C1249.79 -98.4354 1275.19 -49.4351 1270.82 -4.16501C1267.57 29.5702 1218.32 45.756 1199.17 56.2027C1179.14 67.1058 1160.11 83.6272 1140.06 93.5856C1108.43 109.299 1068.5 110.898 1036.23 110.744C1004.86 110.605 965.713 107.069 940.102 85.9115C923.268 72.0103 937.712 32.228 942.698 11.212C949.745 -18.6955 953.781 -47.2378 947.138 -76.3246C940.378 -105.933 926.384 -128.15 910.966 -150.018C903.039 -161.216 893.351 -172.632 888.274 -186.889C882.604 -202.514 887.737 -213.947 893.747 -229.362Z" stroke="white" stroke-width="0.5"/>
<path fill-rule="evenodd" clip-rule="evenodd" d="M921.815 -239.041C937.616 -271.893 959.695 -302.926 987.721 -316.155C1011.06 -327.174 1035.22 -318.354 1058.22 -330.279C1076.43 -339.716 1092.99 -359.855 1109.19 -374.601C1129.03 -392.685 1160.93 -426.374 1185.46 -419.157C1209.39 -412.092 1204.79 -351.626 1203.64 -327.189C1201.94 -291.367 1197.32 -255.549 1195.75 -219.724C1194.51 -191.628 1198.85 -169.59 1206.79 -144.799C1216.11 -115.687 1231.31 -79.7059 1227.7 -46.0881C1225.06 -21.7692 1194.56 -3.0052 1180.73 9.61838C1171.44 18.1026 1162.4 27.0162 1154.57 37.9243C1148.48 46.4182 1144.09 55.2324 1135.78 60.1736C1114.87 72.5948 1089.44 56.858 1069.81 51.2047C1043.73 43.69 1015.73 36.4038 992.035 20.9771C977.46 11.516 978.904 -12.0028 976.957 -30.8124C974.66 -53.0456 966.436 -74.0612 960.157 -94.3155C951.881 -121.07 939.555 -143.201 926.758 -165.999C920.987 -176.285 913.812 -187.531 911.823 -200.726C909.716 -214.439 916.115 -227.183 921.815 -239.041Z" stroke="white" stroke-width="0.5"/>
<path fill-rule="evenodd" clip-rule="evenodd" d="M949.245 -244.975C965.133 -270.502 986.271 -290.346 1010.06 -298.789C1028.31 -305.283 1047.09 -302.434 1064.57 -313.629C1080.87 -324.068 1095.74 -338.737 1111.14 -351.445C1127.44 -364.874 1153.31 -388.351 1172.53 -380.697C1193.25 -372.444 1191.95 -329.787 1191.23 -306.15C1190.31 -276.282 1186.24 -246.5 1183.93 -216.648C1182.27 -194.344 1183.12 -172.135 1186.45 -150.761C1189.91 -128.269 1197.36 -103.566 1193.1 -79.5356C1189.32 -58.2583 1170.44 -43.452 1160.37 -26.6488C1149.6 -8.69745 1142.89 13.6726 1125.96 23.2116C1091.06 42.884 1047.01 0.597997 1019.77 -19.2435C992.872 -38.7888 981.425 -75.916 969.358 -112.137C961.384 -136.056 951.871 -158.422 943.116 -181.722C934.194 -205.487 935.264 -222.51 949.245 -244.975Z" stroke="white" stroke-width="0.5"/>
<path fill-rule="evenodd" clip-rule="evenodd" d="M974.074 -246.001C1001.3 -279.91 1036.88 -281.784 1069.49 -298.206C1096.17 -311.657 1131.77 -354.55 1160.07 -342.182C1192.2 -328.138 1176.86 -246.967 1174.26 -213.107C1171.38 -175.55 1179.66 -136.876 1173.12 -99.7891C1169.7 -80.3185 1158.84 -68.0071 1148.87 -53.5532C1137.93 -37.6789 1127.41 -20.9319 1112 -13.205C1081.66 1.99811 1048.65 -23.517 1024.44 -40.9767C999.37 -59.0477 986.707 -95.0486 976.196 -129.353C965.033 -165.705 946.169 -211.219 974.074 -246.001Z" stroke="white" stroke-width="0.5"/>
<path fill-rule="evenodd" clip-rule="evenodd" d="M1422.44 1535.58C1362.3 1539.25 1299.6 1532.32 1239.42 1527.99C1151.48 1521.65 1063.13 1513.36 977.216 1493.09C931.156 1482.21 870.235 1470.72 836.536 1426.06C824.214 1409.73 818.101 1384.09 809.646 1364.01C797.985 1336.33 785.731 1309.12 773.523 1281.91C749.024 1227.34 724.284 1172.95 701.226 1117.18C690.125 1090.32 681.214 1060.36 668.448 1034.93C660.99 1020.07 646.723 1013.49 635.122 1005.23C608.247 986.106 580.964 967.878 553.814 949.371C520.608 926.729 487.269 904.156 455.324 878.762C440.918 867.304 403.504 843.718 403.839 820.068C404.023 807.335 422.312 798.058 430.783 793.772C446.344 785.889 462.515 780.424 478.492 774.991C515.441 762.425 553.12 752.357 589.211 734.373C607.76 725.123 631.338 714.521 635.728 685.943C640.166 657.081 638.087 627.578 642.097 598.501C646.708 565.036 656.712 534.179 666.494 502.422C673.718 478.947 675.923 454.951 678.897 430.5C682.187 403.476 685.312 376.076 691.316 349.509C695.28 331.958 703.008 300.839 718.854 299.891C741.375 298.533 766.22 332.462 782.603 350.402C805.249 375.187 826.99 401.344 849.312 426.613C865.513 444.965 881.575 463.791 899.936 478.484C929.534 502.17 960.996 522.231 992.184 542.354C1049.94 579.615 1108.13 614.811 1163.71 657.164C1212.4 694.27 1287.42 858.719 1307.16 892.648C1346.55 960.374 1388.02 1027.73 1420.23 1102.44C1428.94 1122.67 1443.33 1151.73 1440.63 1177.63C1438.98 1193.6 1433.49 1199.38 1439.91 1215.37C1448.68 1237.2 1464.61 1255.29 1477.8 1272.12C1499.05 1299.22 1521.08 1325.24 1542.8 1351.68C1586.75 1405.1 1629.45 1460.18 1672.58 1514.74C1685.62 1531.23 1703.66 1546.43 1714.23 1566.04C1721.06 1578.67 1716.82 1584.77 1705.59 1587.48C1685.88 1592.25 1664.11 1586.64 1645.06 1583.4C1617.14 1578.66 1589.48 1572.33 1561.89 1565.83C1534.3 1559.34 1506.75 1552.43 1479.13 1545.95C1460.9 1541.65 1441.21 1534.44 1422.44 1535.58Z" stroke="white" stroke-width="0.5"/>
<path fill-rule="evenodd" clip-rule="evenodd" d="M1392.09 1500.8C1329.46 1502.67 1265.36 1493.34 1203.42 1484.69C1124.13 1473.64 1044.51 1459.24 968.365 1432.08C923.659 1416.12 871.391 1396.29 839.439 1351.18C828.041 1335.09 823.412 1314.91 816.56 1294.99C808.756 1272.27 799.936 1250.18 791.031 1228.27C772.701 1183.17 753.69 1138.61 733.999 1094.59C723.591 1071.23 713.42 1042.82 697.44 1025.29C684.736 1011.35 666.457 1003.59 651.572 994.043C624.769 976.848 597.935 959.731 571.261 942.235C540.484 922.042 509.709 901.601 480.19 878.588C463.737 865.762 433.639 847.631 429.058 823.76C425.062 802.93 484.74 784.08 495.552 780.098C529.316 767.669 563.5 757.383 596.775 741.935C616.422 732.844 640.332 721.8 656.219 702.015C669.754 685.149 672.801 656.504 676.991 634.573C682.248 607.11 689.018 579.647 693.113 551.96C696.765 527.294 695.852 502.147 696.265 477.51C696.72 450.408 697.218 422.888 700.902 395.749C703.186 379.064 707.094 351.184 721.499 344.596C738.126 337.015 762.928 369.145 774.015 380.479C796.479 403.53 817.744 428.556 839.353 452.92C875.247 493.381 909.828 531.199 952.009 560.59C1006.94 598.857 1063.52 633.525 1118.82 670.989C1139.25 684.81 1160.61 697.577 1179.78 714.079C1190.77 723.545 1197.12 734.996 1198.51 750.985C1200.42 772.81 1217.28 796.933 1227.66 816.531C1243.85 847.081 1260.76 876.914 1277.54 906.86C1314.37 972.612 1352.63 1038.1 1383 1109.99C1392.62 1132.74 1403.79 1158.44 1405.98 1185.58C1407.2 1200.72 1400.86 1209.57 1399.36 1223.52C1397.42 1241.91 1410.74 1261.02 1418.3 1273.28C1432.9 1296.95 1449.72 1318.18 1466.57 1338.9C1504.71 1385.78 1545.08 1428.26 1587.15 1468.95C1597.02 1478.47 1636.2 1515.27 1602.64 1523.18C1565.55 1531.93 1524.35 1518.67 1488.63 1512.31C1456.47 1506.55 1424.75 1499.82 1392.09 1500.8Z" stroke="white" stroke-width="0.5"/>
<path fill-rule="evenodd" clip-rule="evenodd" d="M1333.97 1447.62C1276.17 1447.19 1217.65 1435.14 1160.93 1423.05C1092.11 1408.39 1023.33 1389.65 958.405 1359.04C917.624 1339.81 874.045 1315.71 844.526 1273.56C824.366 1244.78 817.83 1203.51 804.731 1168.56C791.632 1133.62 777.113 1099.13 760.553 1066.98C750.274 1047.02 738.927 1026.17 722.213 1015.03C681.577 987.961 639.111 964.863 598.22 938.205C571.158 920.591 544.23 902.548 518.397 882.13C502.818 869.822 480.574 854.678 472.157 832.503C462.858 807.984 596.895 761.236 610.503 754.847C644.62 738.827 687.642 715.847 704.779 669.158C721.16 624.523 720.502 581.382 718.54 535.137C717.448 508.849 709.18 434.545 732.635 419.306C746.039 410.592 766.115 432.436 776.289 441.477C796.342 459.293 815.258 479.164 834.43 498.51C862.4 526.688 889.898 558.247 919.314 583.766C939.8 601.532 962.178 615.688 983.476 631.853C1014.01 655.035 1044.37 678.599 1074.7 702.222C1100.16 722.059 1126.15 741.415 1150.04 764.296C1164.9 778.498 1174.68 792.422 1179.67 814.507C1184.02 833.719 1195.7 851.934 1204.79 868.97C1219.81 897.101 1235.52 924.544 1251.08 952.12C1283.65 1009.86 1316.97 1067.48 1344.77 1129.81C1357.47 1158.25 1380.67 1202.21 1369.27 1239.05C1365.16 1252.33 1363.88 1258.45 1369.03 1271.7C1376.34 1290.52 1388.56 1305.8 1400.15 1319.82C1427.16 1352.5 1459.95 1375.66 1486.96 1408.2C1497.94 1421.49 1510.8 1441.93 1487.78 1448.76C1460.89 1456.78 1430.78 1449.5 1404.35 1446.97C1391.16 1445.7 1377.86 1443.79 1364.49 1444.34C1354.23 1444.78 1344.2 1447.74 1333.97 1447.62Z" stroke="white" stroke-width="0.5"/>
<path fill-rule="evenodd" clip-rule="evenodd" d="M1258.88 1376.25C1207.18 1372.23 1155.48 1358.56 1105.43 1343.62C1049.85 1327 994.684 1306.28 943.172 1276.11C907.595 1255.29 871.38 1229.56 845.701 1190.79C829.463 1166.27 824.511 1136.94 814.377 1107.79C799.098 1063.76 779.286 1023 745.133 1003.24C706.849 981.068 669.058 957.529 631.76 932.62C609.261 917.596 586.863 902.12 565.591 884.447C552.139 873.281 534.935 858.626 527.101 840.797C516.623 816.931 619.135 774.116 632.805 766.908C666.707 749.032 696.393 725.792 723.304 692.151C745.26 664.695 744.121 629.101 741.972 594.419C740.629 572.875 731.149 514.039 749.091 501.056C758.959 493.876 774.275 506.302 782.907 512.125C799.354 523.23 814.854 536.516 830.576 549.141C853.778 567.813 881.254 581.861 902.67 603.707C950.137 652.112 998.047 699.212 1047.18 745.033C1074.27 770.288 1101.68 795.367 1127.01 823.577C1136.1 833.705 1145.46 844.229 1152.6 856.916C1157.2 865.073 1157.82 873.474 1160.8 882.248C1175.02 924.048 1202.14 960.643 1223.41 996.692C1251.68 1044.61 1280.3 1092.39 1305.91 1143.06C1319.37 1169.71 1339.6 1203.96 1341.11 1238.58C1341.57 1249.03 1337.03 1253.67 1336.15 1262.71C1335.11 1273.14 1342.72 1282.28 1347.3 1288.89C1357.68 1303.89 1407.78 1352.78 1368.4 1364.42C1349.63 1369.95 1330.09 1367.8 1311.29 1369.06C1304.48 1369.52 1297.78 1370.1 1291.09 1372.62C1279.88 1376.86 1270.69 1377.15 1258.88 1376.25Z" stroke="white" stroke-width="0.5"/>
<path fill-rule="evenodd" clip-rule="evenodd" d="M1179.17 1299.11C1081.53 1282.04 976.936 1241.42 894.977 1171.44C867.725 1148.16 840.4 1118.93 826.095 1079.21C817.671 1055.76 812.902 1032.91 797.779 1015.24C786.86 1002.49 771.67 995.962 758.488 987.746C739.394 975.849 720.388 963.739 701.524 951.285C678.15 935.818 654.889 919.906 632.626 901.99C616.719 889.185 594.146 872.775 585.899 849.968C576.046 822.753 651.021 787.385 662.782 779.866C691.289 761.643 715.015 741.02 735.533 708.519C741.522 699.058 750.201 691.295 754.671 680.567C759.224 669.602 759.052 656.62 758.712 645.013C758.28 629.81 751.066 589.041 763.009 579.998C769.607 575.006 781.661 582.924 788.423 585.951C801.116 591.611 813.324 598.755 825.799 605.07C846.972 615.766 872.292 617.371 891.46 632.469C943.01 673.05 985.026 735.777 1030.09 786.975C1056.88 817.437 1084.19 847.372 1109.35 880.169C1117.32 890.549 1125.51 901.256 1131.95 913.483C1136.45 922.015 1137.3 931.768 1141.12 940.395C1155.75 973.503 1176.75 1002.83 1195.54 1031.92C1219.92 1069.72 1244.61 1107.17 1268.34 1145.72C1283.21 1169.87 1304.16 1197.12 1312.53 1227.28C1318.63 1249.31 1308.49 1246.78 1296.39 1253.76C1290.22 1257.31 1288.14 1263.86 1283.44 1269.63C1276.74 1277.86 1267.62 1280.52 1259.2 1282.75C1247.59 1285.83 1234.23 1285.48 1223.03 1291.57C1219.08 1293.72 1216.94 1298.48 1213.64 1300.45C1204.02 1306.19 1188.36 1300.72 1179.17 1299.11Z" stroke="white" stroke-width="0.5"/>
<path fill-rule="evenodd" clip-rule="evenodd" d="M1103.95 1221.44C1028.41 1199.87 951.192 1161.55 887.955 1103.93C865.955 1083.88 845.344 1060.51 829.678 1031.71C822.542 1018.63 818.161 1006.76 807.567 998.236C782.984 978.467 756.655 962.134 731.395 943.798C713.318 930.678 695.294 917.19 678.437 901.632C667.163 891.234 651.82 877.378 646.92 859.771C639.816 834.152 689.456 803.224 701.309 793.262C720.959 776.736 741.773 757.578 751.098 728.248C753.946 719.276 755.531 710.641 759.265 702.123C762.45 694.786 766.25 688.666 767.694 680.433C769.49 670.231 765.754 649.433 772.926 644.241C777.819 640.692 784.901 645.742 790.347 647.559C799.181 650.507 808.248 652.457 817.458 653.387C827.167 654.342 836.994 651.88 846.579 653.86C862.133 657.086 876.452 667.175 889.62 677.234C942.153 717.381 988.512 772.377 1032.55 826.51C1055.49 854.697 1078.33 883.517 1098.57 915.201C1104.72 924.825 1111.91 935.262 1115.64 947.233C1117.97 954.693 1118.41 962.149 1121.82 969.023C1150.98 1027.73 1194.73 1074.58 1230.03 1127.81C1239.21 1141.67 1291.3 1215.99 1246.31 1214.37C1218.97 1213.38 1194.26 1203.59 1166.15 1209.31C1157.6 1211.04 1151.43 1213.17 1144.81 1220.71C1140.42 1225.74 1145.42 1225.3 1137.45 1227.99C1127.82 1231.18 1112.75 1223.96 1103.95 1221.44Z" stroke="white" stroke-width="0.5"/>
<path fill-rule="evenodd" clip-rule="evenodd" d="M1046.48 1156.74C962.628 1122.27 884.211 1064.02 818.559 988.097C802.007 968.963 781.848 955.193 763.356 939.464C745.38 924.197 711.268 901.565 707.302 871.43C704.424 849.582 729.644 826.988 741.007 813.642C755.483 796.639 769.695 778.509 771.558 752.719C772.649 737.614 771.81 721.808 772.522 706.565C772.859 699.283 772.163 687.201 776.64 683.466C784.034 677.309 801.066 685.305 810.434 686.873C840.373 691.89 867.079 707.673 892.397 727.055C939.158 762.859 981.976 807.619 1022.14 854.7C1040.61 876.363 1059.21 898.622 1074.96 923.834C1083.88 938.097 1087.34 955.157 1095.36 969.814C1121.18 1017.02 1154.14 1056.82 1181.4 1102.76C1189.29 1116.06 1219.79 1163.56 1190.1 1169.63C1161.37 1175.51 1134.77 1151.98 1105.85 1156.07C1102.56 1156.56 1098.54 1157.08 1095.55 1159.63C1093.77 1161.17 1093.2 1166.23 1092.04 1166.99C1079.71 1175.47 1057.12 1161.12 1046.48 1156.74Z" stroke="white" stroke-width="0.5"/>
<path fill-rule="evenodd" clip-rule="evenodd" d="M1005.64 1107.18C964.514 1085.77 925.156 1058.29 886.632 1029.61C865.574 1013.94 841.678 998.316 824.735 975.31C814.333 961.166 804.087 947.922 792.49 935.175C780.012 921.456 758.614 902.108 758.141 878.827C757.79 861.432 774.473 838.91 781.998 823.805C790.244 807.235 793.722 792.942 790.999 774.525C789.292 762.933 778.01 716.99 784.599 711.227C790.873 705.735 808.404 717.493 816.679 721.119C842.846 732.558 867.391 748.277 890.833 766.563C927.142 794.876 961.341 827.998 993.042 864.332C1006.14 879.373 1019.67 894.925 1030.33 913.18C1037.5 925.48 1041.23 940.454 1048.26 952.875C1068.38 988.469 1092.34 1020.47 1112.42 1056.41C1118.86 1067.95 1141.24 1102.65 1124.84 1117.45C1111.16 1129.8 1089.31 1120.11 1074.42 1124.05C1049.08 1130.79 1028.24 1118.96 1005.64 1107.18Z" stroke="white" stroke-width="0.5"/>
<path fill-rule="evenodd" clip-rule="evenodd" d="M986.459 1080.16C954.197 1062.13 922.521 1040.89 892.051 1017.86C872.387 1002.99 851.497 987.613 835.164 966.816C826.958 956.372 821.991 942.765 815.287 930.656C808.381 918.193 798.184 902.391 799.897 887.161C801.507 872.85 810.876 857.308 814.072 841.006C816.901 826.535 814.235 814.24 811.426 800.87C809.644 792.334 798.465 752.75 803.42 749.656C808.729 746.344 821.77 756.86 829.021 761.359C849.017 773.718 868.399 787.551 887.085 802.799C912.554 823.682 937.273 846.705 959.473 873.149C975.226 891.901 983.246 914.135 996 935.666C1012.51 963.589 1030.93 989.75 1046.73 1018.57C1054.6 1032.93 1066.82 1053 1064.78 1073.07C1064 1080.77 1058.69 1097.8 1053.42 1102.08C1047.08 1107.22 1035.02 1102.27 1029.12 1100.34C1014.36 1095.5 1000.17 1087.82 986.459 1080.16Z" stroke="white" stroke-width="0.5"/>
<path fill-rule="evenodd" clip-rule="evenodd" d="M824.451 86.8476C830.701 4.07077 857.594 -77.8227 852.903 -164.409C849.052 -235.522 806.435 -250.034 782.759 -286.699C763.944 -315.828 755.3 -362.425 747.083 -407.119C739.697 -447.245 733.403 -488.312 725.442 -527.92C720.287 -553.528 711.839 -603.473 697.163 -607.319C683.114 -611.006 667.673 -576.551 657.998 -556.294C645.383 -529.89 633.853 -501.353 621.516 -474.43C600.724 -429.015 577.299 -397.028 550.962 -367.598C520.992 -334.113 490.661 -302.052 459.969 -271.416C437.366 -248.78 414.635 -226.374 392.658 -200.921C378.873 -184.95 348.862 -155.825 346.427 -121.722C345.266 -105.45 351.423 -85.9198 355.516 -71.8946C362.442 -48.154 370.673 -26.0633 378.963 -4.40142C394.402 35.9489 410.715 74.7878 426.796 114.01C447.669 164.915 467.518 214.848 485.069 271.392C503.212 329.917 520.26 390.026 537.786 449.458C549.655 489.719 561.197 534.57 580.409 561.694C604.477 595.609 627.864 569.733 654.186 574.715C676.829 578.993 682.577 469.003 687.513 439.096C692.485 408.82 700.786 381.381 705.342 350.945C711.026 312.952 713.738 273.454 717.133 234.577C721.279 187.024 724.717 141.65 750.34 128.39C764.922 120.861 780.086 121.731 794.874 118.448C804.454 116.315 822.477 112.999 824.451 86.8476Z" stroke="white" stroke-width="0.5"/>
<path fill-rule="evenodd" clip-rule="evenodd" d="M815.014 66.8231C822.087 -2.17939 842.121 -88.2705 833.714 -162.684C826.533 -226.274 791.647 -241.403 769.971 -278.437C752.076 -308.987 746.25 -354.222 739.294 -398.911C733.714 -434.76 728.394 -470.89 721.672 -505.862C716.719 -531.633 709.422 -574.927 696.028 -582.769C683.987 -589.819 668.282 -556.089 660.098 -538.969C648.157 -513.974 637.521 -486.355 626.643 -459.411C607.53 -412.082 588.386 -369.918 562.902 -337.471C537.307 -304.886 510.177 -282.141 482.702 -258.314C461.207 -239.671 439.769 -220.349 419.033 -197.999C403.587 -181.36 381.588 -160.515 372.772 -127.046C365.795 -100.571 388.658 -49.652 395.221 -31.9855C408.733 4.34123 423.323 38.8296 437.955 73.1329C455.795 114.935 474.605 152.142 489.703 198.762C516.709 282.116 537.156 383.243 574.729 448.742C597.391 488.249 624.607 502.694 652.751 503.178C663.896 503.371 668.735 471.433 671.403 452.773C675.838 421.777 678.292 389.829 682.202 358.596C685.864 329.359 691.453 302.01 696.387 273.613C701.383 244.84 704.262 214.906 708.478 185.771C711.093 167.682 713.895 146.584 720.895 133.035C728.138 119.008 738.816 114.68 748.098 111.63C765.525 105.989 810.021 115.518 815.014 66.8231Z" stroke="white" stroke-width="0.5"/>
<path fill-rule="evenodd" clip-rule="evenodd" d="M803.527 34.4594C811.821 -28.4126 822.767 -106.595 810.494 -168.56C800.464 -219.226 772.851 -235.317 754.743 -270.677C739.681 -300.082 736.124 -342.713 730.373 -382.824C725.654 -415.726 720.908 -448.773 714.633 -480.444C709.874 -504.463 703.844 -536.943 691.877 -547.413C681.645 -556.36 667.515 -528.442 660.566 -514.529C648.732 -490.816 638.553 -463.621 628.455 -436.795C611.936 -392.901 596.268 -345.612 574.68 -311.561C553.706 -278.524 530.278 -261.265 506.256 -241.387C487.856 -226.157 469.513 -210.185 451.86 -191.152C438.306 -176.55 421.571 -159.382 413.185 -132.21C405.937 -108.779 418.312 -76.7944 424.306 -58.0119C434.204 -27.0125 445.563 1.88853 456.731 30.8584C468.785 62.1124 482.491 91.4682 494.046 123.33C518.341 190.375 536.473 262.827 568.35 316.882C588.994 351.897 617.673 385.718 644.844 386.194C664.384 386.528 669.148 297.063 672.93 268.935C679.129 222.947 688.328 175.173 700.581 134.139C711.098 98.9807 730.945 91.5066 749.055 86.8155C760.4 83.8661 772.112 83.4072 783.288 77.5566C796.226 70.7748 800.051 60.813 803.527 34.4594Z" stroke="white" stroke-width="0.5"/>
<path fill-rule="evenodd" clip-rule="evenodd" d="M790.187 1.56038C796.201 -51.8775 799.982 -115.745 787.804 -165.497C777.13 -209.078 753.933 -224.689 739.094 -260.325C727.513 -288.128 725.066 -330.125 720.17 -364.778C714.188 -407.148 707.03 -484.613 686.044 -504.359C666.522 -522.718 638.964 -436.336 629.718 -410.786C615.081 -370.347 602.086 -325.379 585.173 -288.723C570.608 -257.167 552.907 -241.68 534.102 -224.994C510.123 -203.674 474.298 -179.894 459.006 -131.962C447.608 -96.2473 472.646 -34.6314 480.727 -6.64389C489.18 22.5948 494.753 56.3504 503.6 84.6984C517.561 129.431 542.464 168.22 563.165 198.165C583.29 227.291 609.745 260.377 634.58 263.767C650.903 266.001 657.556 213.987 662.763 188.976C670.203 153.429 679.024 122.011 694.893 100.027C711.047 77.6477 728.874 69.1755 747.473 62.3696C757.018 58.914 767.776 56.8909 776.719 47.813C786.589 37.963 787.872 22.0999 790.187 1.56038Z" stroke="white" stroke-width="0.5"/>
<path fill-rule="evenodd" clip-rule="evenodd" d="M777.989 -36.7338C781.001 -83.2097 779.276 -133.772 766.647 -172.658C756.128 -205.048 737.177 -219.009 727.239 -251.954C719.366 -278.038 716.821 -312.929 712.354 -342.27C706.896 -378.223 699.951 -440.505 681.401 -456.364C663.294 -471.813 642.108 -409.068 633.093 -384.369C619.888 -348.15 608.548 -309.219 595.254 -273.125C584.837 -244.804 573.273 -227.536 558.309 -210.958C540.742 -191.484 516.675 -170.848 505.568 -134.983C497.553 -109.011 509.552 -62.4732 513.354 -37.3869C515.901 -20.5389 518.123 -3.50021 518.77 14.3318C519.275 28.218 518.565 40.8303 521.902 53.3439C530.306 84.8224 552.829 93.2804 567.632 106.1C587.292 123.116 608.087 142.138 629.383 149.288C642.47 153.711 650.931 129.627 659.679 113.253C670.018 93.8954 683.657 81.2329 695.75 67.4968C711.712 49.3345 728.417 39.4135 745.689 29.2866C753.48 24.7151 762.552 20.5213 769.087 9.61616C775.904 -1.68107 776.901 -19.9606 777.989 -36.7338Z" stroke="white" stroke-width="0.5"/>
<path fill-rule="evenodd" clip-rule="evenodd" d="M761.33 -70.3901C761.36 -109.939 755.749 -148.883 743.877 -179.256C734.778 -202.572 721.598 -217.335 714.867 -244.495C708.596 -269.813 704.933 -297.896 700.144 -324.577C695.073 -352.785 687.877 -399.673 672.492 -410.192C655.911 -421.524 639.67 -378.998 630.676 -355.428C619.312 -325.641 610.001 -293 599.539 -261.923C591.676 -238.774 582.242 -218.059 571.551 -200.465C560.332 -181.909 545.671 -164.931 538.786 -137.68C532.696 -113.541 538.872 -81.5876 538.607 -55.912C538.325 -28.4794 533.676 -0.548758 540.71 24.4837C555.216 76.108 600.378 76.2511 625.783 82.4509C650.847 88.6136 673.044 63.3337 695.275 39.51C709.959 23.7823 725.009 10.9946 739.946 -3.40432C755.176 -18.0982 761.302 -35.5851 761.33 -70.3901Z" stroke="white" stroke-width="0.5"/>
<path fill-rule="evenodd" clip-rule="evenodd" d="M747.304 -95.258C743.404 -153.223 721.332 -188.092 706.987 -234.211C695.251 -271.965 689.571 -346.37 666.476 -360.748C640.256 -377.069 617.642 -284.604 605.771 -249.564C592.601 -210.703 571.827 -181.136 561.191 -139.328C555.602 -117.386 557.641 -95.4382 558.257 -72.2468C558.929 -46.7822 558.977 -20.8764 565.773 0.89016C579.15 43.726 610.525 49.8178 633.033 55.492C656.333 61.3699 678.848 38.4482 699.305 15.1623C720.999 -9.49112 751.294 -35.8171 747.304 -95.258Z" stroke="white" stroke-width="0.5"/>
<path fill-rule="evenodd" clip-rule="evenodd" d="M734.352 -114.093C728.361 -156.142 712.258 -192.608 699.486 -226.539C688.823 -254.83 678.987 -309.419 660.321 -316.959C638.383 -325.837 621.159 -273.177 610.112 -240.986C599.243 -209.357 584.451 -176.635 577.204 -140.971C569.65 -103.82 579.411 -49.7371 590.21 -20.1693C602.255 12.8024 624.543 28.6079 644.394 31.4224C665.177 34.4047 685.854 13.3769 703.278 -9.25162C721.906 -33.4406 741.326 -65.2763 734.352 -114.093Z" stroke="white" stroke-width="0.5"/>
<path fill-rule="evenodd" clip-rule="evenodd" d="M723.3 -122.579C717.265 -157.822 704.789 -189.132 693.227 -217.149C684.306 -238.777 671.439 -275.086 656.714 -278.902C640.516 -283.102 624.848 -257.999 616.449 -230.713C608.168 -203.8 599.061 -169.798 596.013 -139.046C589.382 -72.0784 626.445 11.9715 658.527 12.2588C688.945 12.5297 735.336 -52.3563 723.3 -122.579Z" stroke="white" stroke-width="0.5"/>
<path fill-rule="evenodd" clip-rule="evenodd" d="M675.151 1112.37C692.014 1161.79 734.867 1199.92 738.317 1257.45C741.153 1304.69 688.872 1336.07 662.926 1371.7C642.307 1400.01 636.431 1434.15 630.887 1466.86C625.9 1496.23 622.395 1525.62 616.626 1554.96C612.885 1573.93 607.619 1610.1 589.491 1620.17C572.138 1629.82 548.894 1615.92 534.474 1608.06C515.674 1597.82 498.013 1585.65 479.509 1574.93C448.316 1556.84 415.251 1548.66 378.784 1543.62C337.287 1537.89 295.487 1533.25 253.385 1529.71C222.372 1527.05 191.221 1524.6 160.695 1519.83C141.546 1516.83 100.469 1513.89 93.698 1493.46C90.4681 1483.71 96.1333 1468.09 99.7868 1457.04C105.968 1438.33 113.975 1420 122.104 1401.91C137.244 1368.22 153.65 1335.03 169.723 1301.72C190.585 1258.48 210.258 1216.4 226.313 1171.3C242.899 1124.64 257.931 1077.54 273.641 1030.62C284.277 998.834 294.005 964.299 315.345 937.059C342.083 902.974 374.439 907.285 407.16 890.438C435.309 875.95 454.485 942.945 463.962 959.408C473.523 976.087 486.984 989.233 496.038 1006.23C507.335 1027.45 515.04 1051.17 523.541 1074.14C533.93 1102.24 543.19 1129.33 577.004 1124.45C596.244 1121.66 615.312 1113.23 634.354 1107.63C646.691 1104.01 669.824 1096.76 675.151 1112.37Z" stroke="white" stroke-width="0.5"/>
<path fill-rule="evenodd" clip-rule="evenodd" d="M664.972 1129.36C681.388 1169.6 716.044 1213.99 713.474 1265.72C711.281 1309.93 668.81 1337.71 645.415 1372.55C626.098 1401.3 623.63 1433.12 619.675 1465.19C616.502 1490.91 613.69 1516.67 608.978 1542.43C605.506 1561.41 600.969 1592.76 584.884 1604.72C570.423 1615.46 546.913 1602.16 534.71 1595.52C516.905 1585.82 500.466 1573.77 483.794 1562.28C454.502 1542.09 425.728 1525.21 389.993 1517.81C354.102 1510.37 317.336 1510 280.015 1509.13C250.818 1508.44 221.62 1507.29 192.981 1503.84C171.649 1501.28 141.576 1499.45 126.805 1482.74C115.114 1469.51 138.508 1425.21 144.893 1410.55C158.043 1380.4 172.754 1350.86 187.54 1321.42C205.569 1285.54 225.322 1252.07 239.362 1214.55C264.481 1147.45 279.38 1072.44 319.794 1011.21C344.168 974.281 377.015 950.933 412.548 935.99C426.618 930.072 436.195 947.885 441.59 958.374C450.555 975.798 457.118 994.858 465.444 1012.7C473.241 1029.41 483.27 1043.91 492.584 1059.42C502.017 1075.14 508.9 1092.7 517.386 1109.05C522.651 1119.2 528.479 1131.17 538.797 1136.16C549.475 1141.32 563.444 1138.52 575.512 1135.64C598.157 1130.17 653.385 1100.96 664.972 1129.36Z" stroke="white" stroke-width="0.5"/>
<path fill-rule="evenodd" clip-rule="evenodd" d="M653.841 1155.55C671.158 1191.3 693.493 1235.43 684.671 1281.32C677.463 1318.84 644.246 1343.48 625.152 1375.45C609.269 1402.04 609.387 1431.06 606.454 1459.63C604.045 1483.06 601.619 1506.59 597.107 1530.05C593.685 1547.84 589.571 1571.68 575.555 1584.59C563.57 1595.62 542.652 1585.18 532.345 1579.94C514.792 1570.98 498.955 1558.95 483.262 1547.11C457.588 1527.74 432.624 1505.76 401.599 1495.29C371.462 1485.16 339.927 1486.36 307.357 1486.2C282.409 1486.08 257.454 1485.45 233.039 1482.51C214.294 1480.27 191.245 1478.04 177.681 1465.09C165.964 1453.93 178.165 1427.09 183.718 1412C192.89 1387.09 204.139 1362.75 215.139 1338.47C227.013 1312.27 241.184 1286.42 252.36 1260.09C275.853 1204.7 290.957 1149.07 325.457 1098.02C347.8 1064.94 380.445 1028.45 414.795 1013.99C439.5 1003.6 455.231 1058.15 463.068 1074.11C475.903 1100.19 492.728 1125.85 512.691 1145.63C529.819 1162.56 555.758 1156.99 579.196 1150.54C593.88 1146.52 608.76 1140.71 623.544 1138.62C640.661 1136.2 646.583 1140.56 653.841 1155.55Z" stroke="white" stroke-width="0.5"/>
<path fill-rule="evenodd" clip-rule="evenodd" d="M640.552 1181.88C653.943 1212.77 665.637 1251.47 655.617 1289.49C646.832 1322.79 619.179 1344.8 604.266 1375.22C592.625 1398.95 594.076 1426.96 591.633 1451.57C588.651 1481.66 587.979 1534.71 563.572 1558.21C540.865 1580.06 496.659 1539.4 482.199 1527.94C459.31 1509.81 438.007 1487.94 412.646 1473.41C390.809 1460.9 366.743 1460.25 341.152 1459.41C308.514 1458.32 260.625 1461.82 236.096 1439.26C217.814 1422.45 242.817 1370.19 250.009 1348.16C257.537 1325.15 260.933 1300.75 269.057 1278.1C281.875 1242.35 309.177 1204.69 332.121 1174.85C354.425 1145.83 384.306 1111 415.354 1095.91C435.758 1085.99 449.802 1115.65 459.095 1128.87C472.353 1147.63 486.91 1163.04 509.362 1168.78C532.215 1174.62 555.682 1170.74 579.945 1165.39C592.391 1162.62 606.218 1158.31 618.512 1159.44C632.062 1160.57 635.402 1170 640.552 1181.88Z" stroke="white" stroke-width="0.5"/>
<path fill-rule="evenodd" clip-rule="evenodd" d="M628.09 1212.17C636.952 1240.28 640.255 1273.47 628.474 1304.89C618.662 1331.06 596.165 1349.86 587.149 1376.08C580.005 1396.85 580.568 1420.46 578.093 1441.53C575.08 1467.34 573.042 1510.73 551.258 1530.54C529.991 1549.84 496.333 1520.82 482.228 1509.74C461.563 1493.49 442.967 1474.54 422.203 1458.42C405.928 1445.77 389.4 1440.77 368.639 1437.98C344.265 1434.7 311.528 1434.07 293.561 1416.96C280.584 1404.55 290.736 1368.57 292.831 1350.57C294.229 1338.48 295.194 1326.44 294.078 1314.71C293.21 1305.58 290.941 1297.89 293.811 1288.16C301.042 1263.68 328.664 1246.53 346.03 1230.63C369.095 1209.51 393.379 1186.52 419.588 1170.85C435.691 1161.2 449.027 1172.17 461.89 1178.06C477.092 1185.04 495.749 1186.01 512.564 1188.48C534.762 1191.76 557.007 1189.38 579.993 1186.84C590.362 1185.7 602.312 1183.65 611.777 1187.21C621.642 1190.87 624.889 1202.02 628.09 1212.17Z" stroke="white" stroke-width="0.5"/>
<path fill-rule="evenodd" clip-rule="evenodd" d="M612.738 1242.22C617.067 1267.47 614.175 1295.28 602.408 1320.89C593.394 1340.53 578.274 1356.85 572.682 1377.71C567.472 1397.16 565.872 1417.02 562.69 1436.56C559.318 1457.23 555.276 1490.95 536.899 1505.7C517.092 1521.6 491.872 1502.91 477.903 1492.55C460.254 1479.45 444.9 1463.46 428.255 1449.07C415.767 1438.39 401.551 1430.08 386.078 1424.42C369.831 1418.43 349.388 1415.24 337.697 1401.42C327.352 1389.18 331.72 1365.54 328.597 1349.28C325.263 1331.9 316.334 1316.48 322.542 1296.82C335.345 1256.26 392.627 1232.59 424.186 1215.36C455.315 1198.33 486.22 1202.89 517.01 1206.5C537.346 1208.88 557.827 1209.2 578.341 1210.59C599.257 1212.03 608.927 1220 612.738 1242.22Z" stroke="white" stroke-width="0.5"/>
<path fill-rule="evenodd" clip-rule="evenodd" d="M596.234 1264.07C597.594 1303.14 573.426 1336.92 560.268 1373.86C549.506 1404.1 550.398 1454.6 522.707 1475.82C491.269 1499.91 452.572 1452.62 433.727 1436.41C412.82 1418.45 383.291 1410.38 365.274 1389.21C355.81 1378.1 356.007 1363.02 354.266 1347.88C352.35 1331.26 349.594 1314.68 355.837 1297.23C368.125 1262.89 407.206 1242.65 435.101 1227.3C463.976 1211.4 494.987 1214.31 523.431 1218.53C553.59 1222.98 594.827 1224.01 596.234 1264.07Z" stroke="white" stroke-width="0.5"/>
<path fill-rule="evenodd" clip-rule="evenodd" d="M582.837 1283.06C579.824 1313.01 563.419 1344.66 550.95 1372.96C540.537 1396.56 534.024 1436.52 511.237 1451.04C484.458 1468.12 456.961 1443.47 439.496 1428.68C422.318 1414.15 400.06 1400.96 387.025 1381.97C373.439 1362.19 379.912 1322.6 390.359 1298.11C402.012 1270.8 428.481 1249.12 453.279 1237C479.238 1224.28 507.669 1226.94 532.16 1232.32C558.342 1238.06 586.356 1248.28 582.837 1283.06Z" stroke="white" stroke-width="0.5"/>
<path fill-rule="evenodd" clip-rule="evenodd" d="M569.182 1294.44C565.38 1320.08 553.001 1346.57 541.422 1370.47C532.487 1388.93 520.157 1418.81 501.945 1428.9C481.911 1440.01 459.362 1432.13 445.771 1419.08C432.37 1406.2 417.153 1389.23 409.954 1371.17C394.285 1331.86 432.032 1258.9 472.585 1242.03C511.035 1226.03 576.774 1243.33 569.182 1294.44Z" stroke="white" stroke-width="0.5"/>
<path fill-rule="evenodd" clip-rule="evenodd" d="M556.576 1304.13C550.67 1337.78 527.87 1393.28 495.925 1411.02C459.257 1431.37 436.602 1394.72 431.736 1362.12C426.748 1328.87 455.088 1262.13 491.032 1250.36C526.112 1238.86 563.569 1264.22 556.576 1304.13Z" stroke="white" stroke-width="0.5"/>
<path fill-rule="evenodd" clip-rule="evenodd" d="M543.059 1316.5C538.034 1344.83 521.037 1385.82 494.341 1400.74C462.529 1418.51 451.793 1383 452.019 1357.29C452.265 1330.58 473.112 1274.3 503.221 1265.74C532.507 1257.43 547.874 1289.35 543.059 1316.5Z" stroke="white" stroke-width="0.5"/>
<path fill-rule="evenodd" clip-rule="evenodd" d="M529.702 1326.16C526.756 1346.2 513.063 1376.73 494.12 1387.37C470.962 1400.37 466.438 1369.84 468.106 1353.1C470.083 1333.17 485.122 1292.49 506.809 1286.48C528.161 1280.57 532.137 1309.65 529.702 1326.16Z" stroke="white" stroke-width="0.5"/>
<path fill-rule="evenodd" clip-rule="evenodd" d="M-216.642 -58.6038C-152.44 -67.8181 -88.9457 -64.5748 -27.266 -64.2304C62.8663 -63.7202 152.807 -60.9171 236.346 -43.5919C281.132 -34.297 341.292 -25.4513 362.282 25.2163C369.958 43.7392 368.138 73.8919 370.559 97.2085C373.897 129.359 378.011 160.891 382.076 192.432C390.245 255.679 398.724 318.695 404.997 383.497C408.014 414.705 407.74 449.801 412.963 479.162C416.01 496.326 428.852 503.04 438.361 511.98C460.391 532.682 483.137 552.274 505.654 572.211C533.192 596.603 560.892 620.902 586.225 648.685C597.647 661.222 629.292 686.404 621.354 714.696C617.075 729.929 594.931 742.486 584.677 748.289C565.84 758.961 547.137 766.792 528.649 774.57C485.893 792.557 443.172 807.618 399.576 832.012C377.168 844.557 349.055 859.123 335.285 893.632C321.374 928.482 314.087 963.576 300.555 998.65C284.985 1039.02 264.6 1076.7 244.16 1115.44C229.057 1144.08 219.046 1172.93 208.084 1202.4C195.966 1234.96 183.9 1267.96 169.084 1300.19C159.298 1321.48 141.214 1359.3 124.302 1361.7C100.264 1365.14 85.1094 1326.58 73.6946 1306.46C57.9122 1278.66 43.5185 1249.14 28.2307 1220.73C17.1389 1200.1 6.34564 1178.89 -8.18403 1162.81C-31.6055 1136.88 -58.1433 1115.43 -84.3748 1093.89C-132.947 1054 -182.646 1016.61 -227.308 970.454C-266.436 930.02 -292.3 739.506 -302.098 700.542C-321.653 622.764 -343.512 545.6 -353.298 458.889C-355.939 435.421 -361.693 401.844 -350.559 370.664C-343.702 351.448 -336.094 344.103 -337.694 325.501C-339.876 300.123 -350.772 279.785 -359.199 260.731C-372.772 230.046 -387.508 200.713 -401.794 170.865C-430.721 110.545 -457.797 48.1481 -485.495 -13.5921C-493.868 -32.2554 -507.9 -48.9711 -512.693 -71.5606C-515.8 -86.0958 -509.393 -93.7347 -496.751 -97.8786C-474.568 -105.155 -453.553 -100.204 -434.622 -97.8655C-406.886 -94.4359 -379.931 -89.0928 -353.094 -83.5507C-326.256 -78.0086 -299.597 -71.9629 -272.733 -66.4393C-255.006 -62.7617 -236.68 -55.7296 -216.642 -58.6038Z" stroke="white" stroke-width="0.5"/>
<path fill-rule="evenodd" clip-rule="evenodd" d="M-196.304 -19.9955C-130.079 -27.2207 -65.9125 -21.1906 -3.77847 -15.792C75.7608 -8.91058 154.565 1.93676 225.65 28.3113C267.38 43.8083 315.791 63.3327 334.819 114.66C341.607 132.973 339.993 156.704 340.792 179.947C341.691 206.458 343.857 232.137 346.167 257.599C350.925 310.009 356.569 361.714 363.101 412.715C366.523 439.784 368.079 472.906 379.207 492.569C388.053 508.207 404.718 516.02 417.255 526.236C439.831 544.636 462.463 562.942 484.806 581.713C510.586 603.378 536.283 625.339 559.84 650.472C572.97 664.481 598.698 683.737 595.851 711.882C593.365 736.441 524.798 763.71 512.194 769.328C472.835 786.863 433.724 801.872 393.911 822.974C370.413 835.397 341.823 850.494 318.839 875.39C299.255 896.611 286.886 931.067 275.471 957.593C261.165 990.813 245.275 1024.15 232.115 1057.55C220.387 1087.3 213.288 1117.26 204.963 1146.72C195.804 1179.12 186.466 1212.03 173.913 1244.74C166.175 1264.85 153.149 1298.46 135.946 1307.47C116.096 1317.85 100.402 1281.46 92.4165 1268.8C76.2632 1243.06 61.9983 1214.87 47.1618 1187.49C22.515 1142.02 -1.60379 1099.61 -36.3836 1067.87C-81.6829 1026.54 -129.858 989.647 -175.8 949.308C-192.777 934.428 -211.069 920.883 -225.87 902.7C-234.351 892.271 -237.331 879.1 -233.67 860.115C-228.678 834.2 -238.614 806.732 -243.212 784.152C-250.387 748.954 -258.557 714.672 -266.542 680.243C-284.063 604.647 -303.176 529.484 -311.973 446.035C-314.759 419.638 -318.227 389.831 -311.828 357.587C-308.262 339.603 -298.778 328.529 -292.737 311.742C-284.817 289.633 -292.651 267.868 -296.65 253.828C-304.358 226.719 -315.182 202.708 -326.203 179.303C-351.143 126.348 -379.838 78.8259 -410.885 33.5841C-418.172 22.9978 -447.435 -17.8317 -409.736 -29.9564C-368.079 -43.359 -329.154 -30.8051 -293.77 -26.0543C-261.917 -21.7399 -230.83 -16.2299 -196.304 -19.9955Z" stroke="white" stroke-width="0.5"/>
<path fill-rule="evenodd" clip-rule="evenodd" d="M-151.954 39.0739C-91.5341 34.9756 -34.0893 44.6933 21.4549 54.599C88.8556 66.6203 154.91 83.5056 213.12 114.869C249.681 134.581 287.611 159.888 305.027 207.868C316.924 240.628 310.545 289.388 313.069 330.073C315.593 370.757 319.748 410.792 326.794 447.864C331.167 470.871 336.371 494.872 350.313 506.831C384.208 535.919 421.296 560.111 455.592 588.682C478.298 607.556 500.727 626.953 521.247 649.274C533.624 662.729 552.074 679.039 553.785 704.848C555.67 733.386 400.261 799.914 383.958 808.629C343.08 830.484 290.643 861.362 257.725 918.486C226.258 973.097 213.121 1024.56 200.355 1079.63C193.074 1110.94 177.922 1199.01 148.464 1219.09C131.628 1230.56 117.597 1206.08 109.835 1196.09C94.5368 1176.42 81.0883 1154.2 67.2023 1132.63C46.9307 1101.21 28.2371 1065.72 5.59756 1037.59C-10.1703 1018.01 -29.0779 1002.89 -46.211 985.287C-70.7739 960.04 -95.024 934.323 -119.226 908.534C-139.545 886.877 -160.567 865.837 -178.264 840.42C-189.283 824.646 -195.07 808.799 -193.218 782.824C-191.611 760.228 -198.018 739.408 -202.079 719.789C-208.793 687.394 -216.46 655.875 -223.921 624.187C-239.539 557.835 -255.978 491.688 -265.133 419.471C-269.319 386.513 -279.531 335.873 -255.782 290.974C-247.219 274.783 -243.917 267.377 -245.066 251.956C-246.7 230.071 -254.604 212.799 -262.252 196.983C-280.078 160.113 -307.001 135.068 -324.87 98.3677C-332.111 83.3678 -339.036 59.9833 -312.727 49.9923C-281.989 38.2751 -252.774 44.5583 -225.896 45.4684C-212.481 45.9285 -199.158 47.1481 -184.987 45.4306C-174.087 44.0865 -162.639 39.7539 -151.954 39.0739Z" stroke="white" stroke-width="0.5"/>
<path fill-rule="evenodd" clip-rule="evenodd" d="M-96.7329 116.718C-43.8512 117.363 5.93964 129.543 53.5896 143.377C106.496 158.773 157.647 179.094 201.941 211.002C232.539 233.016 262.23 260.845 276.696 305.095C285.841 333.083 281.617 367.721 282.88 401.731C284.759 453.104 292.438 500.201 321.883 521.069C354.884 544.48 386.929 569.566 418.017 596.328C436.772 612.469 455.274 629.159 471.892 648.562C482.405 660.822 495.729 676.947 498.216 697.616C501.535 725.286 380.376 784.663 363.738 794.371C322.475 818.448 283.91 848.594 244.913 890.943C213.095 925.504 202.865 967.934 193.985 1009.19C188.478 1034.82 179.529 1104.34 156.561 1121.3C143.916 1130.66 131.855 1117.05 124.679 1110.79C111.009 1098.84 99.031 1084.21 86.6081 1070.4C68.2885 1049.95 44.0065 1035.38 28.577 1011C-5.627 956.985 -40.7138 904.566 -77.4954 853.773C-97.7743 825.778 -118.446 798.019 -135.932 766.353C-142.21 754.984 -148.642 743.164 -152.054 728.581C-154.254 719.207 -152.208 709.221 -152.512 698.978C-153.992 650.185 -170.669 608.647 -181.386 567.29C-195.634 512.311 -210.29 457.538 -220.855 399.06C-226.412 368.301 -236.619 329.013 -227.089 287.785C-224.21 275.328 -217.974 269.425 -214.14 258.55C-209.712 246.012 -214.753 235.706 -217.427 228.179C-223.491 211.087 -260.3 156.707 -215.298 139.638C-193.846 131.525 -174.064 132.533 -153.957 129.509C-146.675 128.412 -139.472 127.188 -131.648 123.64C-118.544 117.678 -108.822 116.595 -96.7329 116.718Z" stroke="white" stroke-width="0.5"/>
<path fill-rule="evenodd" clip-rule="evenodd" d="M-37.6666 202.501C59.0767 215.139 155.569 255.321 218.977 332.297C240.058 357.903 259.31 390.606 261.581 436.844C262.903 464.135 260.586 491.01 270.766 510.884C278.116 525.229 291.928 531.816 303.098 540.572C319.279 553.251 335.3 566.191 351.063 579.552C370.582 596.149 389.842 613.287 407.415 632.894C419.97 646.907 438.349 664.692 439.688 691.239C441.298 722.916 351.51 771.021 336.795 780.917C301.128 804.903 269.699 831.372 237.829 871.753C228.535 883.51 216.968 893.454 208.858 906.601C200.585 920.037 196.614 935.505 193.258 949.32C188.849 967.416 183.361 1015.47 167.968 1027.19C159.466 1033.67 149.381 1025.18 143.271 1022.1C131.795 1016.36 121.301 1008.8 110.264 1002.26C91.5222 991.176 65.5319 991.263 50.2977 974.773C9.31698 930.452 -14.6023 858.967 -45.402 801.472C-63.693 767.261 -82.7084 733.721 -98.5616 696.597C-103.575 684.848 -108.727 672.727 -111.559 658.655C-113.537 648.835 -111.309 637.272 -112.547 627.285C-117.275 588.958 -129.877 555.648 -140.242 522.437C-153.674 479.288 -167.539 436.575 -180.052 392.483C-187.896 364.848 -201.113 334.015 -200.218 298.702C-199.566 272.914 -189.753 275.129 -174.866 265.853C-167.271 261.127 -162.993 253.158 -156.234 245.907C-146.584 235.555 -136.191 231.659 -126.668 228.343C-113.522 223.75 -99.6532 223.107 -85.9789 214.957C-81.162 212.09 -77.4034 206.24 -73.3132 203.63C-61.4041 196.022 -46.7653 201.313 -37.6666 202.501Z" stroke="white" stroke-width="0.5"/>
<path fill-rule="evenodd" clip-rule="evenodd" d="M15.729 289.863C87.9155 309.48 156.471 348.968 204.164 412.657C220.755 434.821 234.822 461.062 241.96 494.193C245.223 509.244 245.992 523.066 254.345 532.385C273.733 554 296.056 571.368 316.614 591.216C331.328 605.417 345.867 620.063 358.517 637.277C366.978 648.781 378.59 664.085 378.054 684.722C377.247 714.752 315.285 755.751 299.66 768.62C273.752 789.967 245.779 814.553 226.565 850.357C220.692 861.309 216.251 871.755 209.596 882.237C203.897 891.263 197.946 898.884 193.782 908.839C188.615 921.175 185.832 945.719 176.646 952.506C170.378 957.146 164.585 951.69 159.464 949.963C151.16 947.16 142.288 945.571 132.939 945.21C123.076 944.861 111.988 948.603 102.584 947.019C87.3287 944.433 75.5762 933.546 65.0211 922.601C22.9136 878.919 -7.94287 816.99 -36.6517 755.903C-51.6035 724.095 -66.2456 691.524 -77.2518 655.319C-80.5916 644.322 -84.7621 632.438 -84.8153 618.439C-84.8564 609.716 -82.9133 600.843 -84.2756 592.909C-95.9252 525.147 -126.666 472.735 -146.502 412.013C-151.665 396.207 -182.302 311.651 -135.686 309.926C-107.364 308.874 -84.6311 318.562 -53.3444 309.431C-43.8238 306.665 -36.6756 303.619 -27.3138 294.069C-21.0947 287.699 -26.4739 288.634 -17.2614 284.773C-6.14413 280.176 7.31794 287.579 15.729 289.863Z" stroke="white" stroke-width="0.5"/>
<path fill-rule="evenodd" clip-rule="evenodd" d="M54.5802 363.312C131.325 397.752 194.751 460.996 239.142 546.333C250.337 567.839 267.028 582.659 281.346 599.95C295.272 616.729 323.732 641.009 318.218 676.641C314.222 702.475 280.565 731.438 264.385 748.264C243.771 769.7 223.073 792.461 212.848 823.376C206.86 841.481 202.668 860.27 197.033 878.51C194.343 887.224 191.196 901.582 185.31 906.394C175.592 914.328 160.322 906.147 151.016 905.022C121.275 901.424 98.3724 884.724 78.0788 863.62C40.5985 824.635 10.1214 774.653 -16.8299 721.689C-29.228 697.319 -41.5567 672.247 -49.9697 643.427C-54.7332 627.123 -52.8802 607.047 -56.5783 590.202C-68.4734 535.944 -90.2157 491.095 -104.021 438.464C-108.015 423.227 -124.717 368.991 -91.6846 359.382C-59.7058 350.083 -39.4011 376.032 -7.80372 368.844C-4.20676 367.999 0.170296 367.063 4.12076 363.776C6.47577 361.802 8.70034 355.72 10.1582 354.719C25.7879 343.622 44.8424 358.935 54.5802 363.312Z" stroke="white" stroke-width="0.5"/>
<path fill-rule="evenodd" clip-rule="evenodd" d="M82.3977 418.628C118.616 440.942 151.042 470.627 182.215 501.795C199.256 518.832 219.283 535.592 229.672 561.685C236.044 577.729 242.54 592.711 250.61 606.998C259.291 622.372 275.513 643.762 268.57 671.463C263.38 692.161 238.717 720.292 226.013 738.873C212.086 759.257 203.878 776.556 200.844 798.288C198.929 811.965 196.063 865.827 187.323 873.206C178.999 880.237 164.401 867.591 156.896 863.913C133.154 852.318 112.477 835.498 93.7764 815.533C64.8061 784.623 39.5818 747.818 17.9992 706.992C9.09181 690.09 -0.107676 672.612 -5.43124 651.69C-9.0114 637.593 -8.13315 620.043 -11.5242 605.79C-21.216 564.946 -36.0801 528.679 -45.625 487.422C-48.6805 474.171 -61.0181 434.563 -39.1254 415.664C-20.8525 399.878 -1.07246 409.724 15.7703 403.879C44.4632 393.875 62.4986 406.358 82.3977 418.628Z" stroke="white" stroke-width="0.5"/>
<path fill-rule="evenodd" clip-rule="evenodd" d="M92.86 449.498C120.857 468.431 147.208 491.246 171.724 516.294C187.545 532.459 204.485 549.14 214.919 572.639C220.163 584.439 221.003 600.267 224.14 614.172C227.377 628.483 232.989 646.513 226.317 664.803C220.046 681.991 205.261 701.259 196.692 720.945C189.096 738.418 187.947 752.864 186.604 768.58C185.735 778.615 184.756 824.918 178.578 828.997C171.96 833.366 161.678 821.862 155.529 817.072C138.558 803.921 122.701 788.964 108.026 772.266C88.0563 749.386 69.5567 723.898 54.7902 694.13C44.3089 673.022 43.0363 647.153 36.5833 622.495C28.2471 590.515 17.3444 560.787 10.0452 527.678C6.4071 511.18 0.0470007 488.225 8.61075 464.138C11.8872 454.901 22.9071 434.179 29.794 428.662C38.0704 422.03 49.1151 426.983 54.6694 428.81C68.567 433.412 80.9605 441.452 92.86 449.498Z" stroke="white" stroke-width="0.5"/>
</g>
<defs>
<clipPath id="clip0_102_167">
<rect width="2102" height="1332" fill="white"/>
</clipPath>
</defs>
</svg>
